<svg width="16" height="16" viewBox="0 0 16 16" fill="none" xmlns="http://www.w3.org/2000/svg">
<path fill-rule="evenodd" clip-rule="evenodd" d="M8.00098 11.2334C8.62666 11.2335 9.13354 11.7406 9.13379 12.3662C9.13379 12.9921 8.62681 13.4999 8.00098 13.5C7.37505 13.5 6.86719 12.9921 6.86719 12.3662C6.86743 11.7405 7.37521 11.2334 8.00098 11.2334ZM8.00098 6.86621C8.62681 6.86632 9.13379 7.37414 9.13379 8C9.13365 8.62574 8.62672 9.13271 8.00098 9.13281C7.37514 9.13281 6.86733 8.6258 6.86719 8C6.86719 7.37408 7.37505 6.86621 8.00098 6.86621ZM8.00098 2.5C8.62681 2.50011 9.13379 3.00793 9.13379 3.63379C9.13354 4.25944 8.62666 4.7665 8.00098 4.7666C7.37521 4.7666 6.86743 4.2595 6.86719 3.63379C6.86719 3.00787 7.37505 2.5 8.00098 2.5Z" fill="#21236A"/>
</svg>