<svg width="17" height="17" viewBox="0 0 17 17" fill="none" xmlns="http://www.w3.org/2000/svg">
<path d="M8.49935 15.6405C8.28685 15.6405 8.07435 15.5909 7.89727 15.4917C6.57268 14.7692 4.24227 14.0042 2.7831 13.813L2.57768 13.7846C1.64977 13.6713 0.884766 12.8001 0.884766 11.858V3.30131C0.884766 2.74172 1.10435 2.23172 1.5081 1.86339C1.91185 1.49506 2.43602 1.31797 2.98852 1.36756C4.54685 1.48797 6.89852 2.26714 8.23018 3.10297L8.40018 3.20214C8.44977 3.23047 8.55602 3.23047 8.59852 3.20922L8.71185 3.13839C10.0435 2.30256 12.3952 1.50922 13.9606 1.37464C13.9748 1.37464 14.0314 1.37464 14.0456 1.37464C14.5627 1.32506 15.0939 1.50922 15.4906 1.87756C15.8944 2.24589 16.1139 2.75589 16.1139 3.31547V11.8651C16.1139 12.8142 15.3489 13.6784 14.4139 13.7917L14.1802 13.8201C12.721 14.0113 10.3835 14.7834 9.08727 15.4988C8.91727 15.598 8.71185 15.6405 8.49935 15.6405ZM2.81852 2.42297C2.59185 2.42297 2.38643 2.50089 2.22352 2.64964C2.04643 2.81256 1.94727 3.04631 1.94727 3.30131V11.858C1.94727 12.2759 2.30852 12.6796 2.71227 12.7363L2.92477 12.7646C4.51852 12.9771 6.96227 13.7776 8.37893 14.5496C8.44268 14.578 8.53477 14.5851 8.57018 14.5709C9.98685 13.7846 12.4448 12.9771 14.0456 12.7646L14.2864 12.7363C14.6902 12.6867 15.0514 12.2759 15.0514 11.858V3.30839C15.0514 3.04631 14.9523 2.81964 14.7752 2.64964C14.591 2.48672 14.3573 2.40881 14.0952 2.42297C14.081 2.42297 14.0244 2.42297 14.0102 2.42297C12.6573 2.54339 10.4756 3.27297 9.2856 4.01672L9.17227 4.09464C8.78268 4.33547 8.23018 4.33547 7.85477 4.10172L7.68477 4.00256C6.47352 3.25881 4.29185 2.53631 2.90352 2.42297C2.87518 2.42297 2.84685 2.42297 2.81852 2.42297Z" fill="white"/>
<path d="M8.5 15.0449C8.20958 15.0449 7.96875 14.8041 7.96875 14.5137V3.88867C7.96875 3.59826 8.20958 3.35742 8.5 3.35742C8.79042 3.35742 9.03125 3.59826 9.03125 3.88867V14.5137C9.03125 14.8112 8.79042 15.0449 8.5 15.0449Z" fill="white"/>
<path d="M5.49023 6.54492H3.89648C3.60607 6.54492 3.36523 6.30409 3.36523 6.01367C3.36523 5.72326 3.60607 5.48242 3.89648 5.48242H5.49023C5.78065 5.48242 6.02148 5.72326 6.02148 6.01367C6.02148 6.30409 5.78065 6.54492 5.49023 6.54492Z" fill="white"/>
<path d="M6.02148 8.66992H3.89648C3.60607 8.66992 3.36523 8.42909 3.36523 8.13867C3.36523 7.84826 3.60607 7.60742 3.89648 7.60742H6.02148C6.3119 7.60742 6.55273 7.84826 6.55273 8.13867C6.55273 8.42909 6.3119 8.66992 6.02148 8.66992Z" fill="white"/>
</svg>