<svg width="18" height="18" viewBox="0 0 18 18" fill="none" xmlns="http://www.w3.org/2000/svg">
<path d="M9 12.6377C9.70394 12.6378 10.2742 13.2082 10.2744 13.9121C10.2744 14.6162 9.70407 15.1874 9 15.1875C8.29584 15.1875 7.72461 14.6163 7.72461 13.9121C7.72482 13.2081 8.29597 12.6377 9 12.6377ZM9 7.72461C9.70407 7.72471 10.2744 8.2959 10.2744 9C10.2743 9.70396 9.70398 10.2743 9 10.2744C8.29593 10.2744 7.72477 9.70403 7.72461 9C7.72461 8.29584 8.29584 7.72461 9 7.72461ZM9 2.8125C9.70407 2.81261 10.2744 3.38379 10.2744 4.08789C10.2742 4.79181 9.70394 5.3622 9 5.3623C8.29597 5.3623 7.72482 4.79187 7.72461 4.08789C7.72461 3.38373 8.29584 2.8125 9 2.8125Z" fill="#8E9198"/>
</svg>